<?xml version="1.0" standalone="no"?>
<!DOCTYPE svg PUBLIC "-//W3C//DTD SVG 20010904//EN"
 "http://www.w3.org/TR/2001/REC-SVG-20010904/DTD/svg10.dtd">
<svg version="1.0" xmlns="http://www.w3.org/2000/svg"
 width="512.000000pt" height="512.000000pt" viewBox="0 0 512.000000 512.000000"
 preserveAspectRatio="xMidYMid meet">

<g transform="translate(0.000000,512.000000) scale(0.100000,-0.100000)"
fill="#000000" stroke="none">
<path d="M350 4269 c-162 -32 -308 -182 -340 -349 -6 -34 -10 -523 -10 -1359
0 -1098 3 -1317 15 -1374 36 -172 188 -312 367 -337 84 -13 4272 -13 4356 0
179 25 331 165 367 337 12 57 15 276 15 1374 0 834 -4 1326 -10 1360 -32 170
-178 316 -350 349 -67 13 -4345 12 -4410 -1z m4441 -165 c66 -31 114 -78 146
-142 l28 -57 0 -1345 0 -1345 -23 -46 c-31 -63 -85 -117 -146 -145 l-51 -24
-2185 0 -2185 0 -51 24 c-61 28 -115 82 -146 145 l-23 46 -3 1315 c-2 920 1
1331 8 1367 22 102 106 192 207 219 39 10 460 12 2213 11 l2165 -2 46 -21z"/>
<path d="M462 3647 c-20 -21 -22 -34 -22 -145 0 -109 2 -124 20 -142 25 -25
71 -26 101 -1 19 16 24 30 27 90 l4 71 804 0 804 0 0 -930 0 -930 -805 0 -805
0 -2 739 c-3 711 -4 740 -22 760 -25 27 -79 28 -106 1 -20 -20 -20 -33 -20
-813 l0 -794 21 -19 c20 -18 50 -19 936 -19 l915 0 19 24 c18 23 19 54 19
1055 l0 1033 -23 21 -23 22 -910 0 -911 0 -21 -23z"/>
<path d="M2693 3485 c-55 -24 -57 -105 -3 -132 20 -10 229 -12 996 -10 940 2
973 3 993 21 22 20 28 65 11 96 -5 10 -24 23 -41 29 -23 8 -312 11 -978 11
-788 -1 -951 -3 -978 -15z"/>
<path d="M1319 3270 c-172 -26 -320 -135 -398 -291 -69 -136 -76 -286 -21
-430 27 -73 109 -181 170 -225 l50 -36 -37 -27 c-108 -79 -180 -194 -209 -332
-17 -80 -13 -122 13 -151 18 -20 64 -24 93 -8 21 11 40 66 40 115 0 17 11 56
24 87 103 251 426 317 618 125 60 -61 95 -134 108 -227 12 -85 31 -110 85
-110 51 0 69 28 67 104 -4 152 -100 322 -230 408 l-23 15 51 39 c200 152 260
436 143 669 -33 64 -154 185 -218 218 -101 50 -224 72 -326 57z m233 -182 c74
-34 152 -112 186 -186 24 -50 27 -69 27 -157 0 -93 -2 -105 -32 -166 -115
-232 -417 -284 -603 -103 -114 111 -145 280 -77 427 42 93 105 152 206 194 80
34 211 30 293 -9z"/>
<path d="M2670 2920 c-27 -27 -26 -81 1 -106 20 -18 45 -19 639 -19 594 0 619
1 639 19 27 25 28 79 1 106 -20 20 -33 20 -640 20 -607 0 -620 0 -640 -20z"/>
<path d="M4150 2920 c-27 -27 -26 -81 1 -106 20 -18 39 -19 264 -19 225 0 244
1 264 19 27 25 28 79 1 106 -19 19 -33 20 -265 20 -232 0 -246 -1 -265 -20z"/>
<path d="M2672 2367 c-31 -33 -29 -80 4 -106 27 -21 30 -21 999 -21 969 0 972
0 999 21 34 27 36 79 4 109 -22 20 -29 20 -1003 20 l-982 0 -21 -23z"/>
<path d="M2676 1819 c-34 -27 -36 -77 -3 -107 l23 -22 545 0 546 0 21 23 c31
33 29 80 -4 106 -26 21 -36 21 -564 21 -528 0 -538 0 -564 -21z"/>
</g>
</svg>
